<svg xmlns="http://www.w3.org/2000/svg" viewBox="0 0 24 24" fill="none" stroke="#869121" stroke-width="1.75" stroke-linecap="round" stroke-linejoin="round" aria-label="Langue — Dictionnaire et Traducteur">
  <!-- Livre ouvert -->
  <path d="M2 4h8a2 2 0 0 1 2 2v14a1.5 1.5 0 0 0-1.5-1.5H2z"/>
  <path d="M22 4h-8a2 2 0 0 0-2 2v14a1.5 1.5 0 0 1 1.5-1.5H22z"/>
  <!-- Lignes de texte dans le livre gauche -->
  <line x1="4.5" y1="8" x2="9.5" y2="8" stroke="#2D2926" stroke-width="1"/>
  <line x1="4.5" y1="11" x2="9.5" y2="11" stroke="#2D2926" stroke-width="1"/>
  <line x1="4.5" y1="14" x2="7.5" y2="14" stroke="#2D2926" stroke-width="1"/>
  <!-- Lignes de texte dans le livre droit -->
  <line x1="14.5" y1="8" x2="19.5" y2="8" stroke="#2D2926" stroke-width="1"/>
  <line x1="14.5" y1="11" x2="19.5" y2="11" stroke="#2D2926" stroke-width="1"/>
  <line x1="14.5" y1="14" x2="17.5" y2="14" stroke="#2D2926" stroke-width="1"/>
</svg>
