<svg xmlns="http://www.w3.org/2000/svg" viewBox="0 0 24 24" fill="none" stroke="#869121" stroke-width="1.5" stroke-linecap="round" stroke-linejoin="round" aria-label="Soleil de Provence">
  <!-- Disque solaire -->
  <circle cx="12" cy="12" r="4.5" fill="#D5713F" stroke="#D5713F" stroke-width="1" opacity="0.9"/>
  <!-- Rayons longs (8 directions) -->
  <line x1="12" y1="3.5"  x2="12" y2="1"/>
  <line x1="12" y1="20.5" x2="12" y2="23"/>
  <line x1="3.5"  y1="12" x2="1"  y2="12"/>
  <line x1="20.5" y1="12" x2="23" y2="12"/>
  <line x1="6.4"  y1="6.4"  x2="4.6" y2="4.6"/>
  <line x1="17.6" y1="17.6" x2="19.4" y2="19.4"/>
  <line x1="17.6" y1="6.4"  x2="19.4" y2="4.6"/>
  <line x1="6.4"  y1="17.6" x2="4.6" y2="19.4"/>
  <!-- Rayons courts intercalés -->
  <line x1="12"   y1="6"    x2="12"   y2="4.5"  stroke="#D5713F" stroke-width="1"/>
  <line x1="12"   y1="18"   x2="12"   y2="19.5" stroke="#D5713F" stroke-width="1"/>
  <line x1="6"    y1="12"   x2="4.5"  y2="12"   stroke="#D5713F" stroke-width="1"/>
  <line x1="18"   y1="12"   x2="19.5" y2="12"   stroke="#D5713F" stroke-width="1"/>
  <line x1="7.8"  y1="7.8"  x2="6.9"  y2="6.9"  stroke="#D5713F" stroke-width="1"/>
  <line x1="16.2" y1="16.2" x2="17.1" y2="17.1" stroke="#D5713F" stroke-width="1"/>
  <line x1="16.2" y1="7.8"  x2="17.1" y2="6.9"  stroke="#D5713F" stroke-width="1"/>
  <line x1="7.8"  y1="16.2" x2="6.9"  y2="17.1" stroke="#D5713F" stroke-width="1"/>
</svg>
